# xmcd
#
# Track frame offsets:
#	150
#	24060
#	42993
#	59270
#	73683
#	110175
#	125073
#	140153
#	159000
#	181048
#
# Disc length: 2921 seconds
# Revision: 0
# Processed by: cddbd v1.5.2PL0 Copyright (c) Steve Scherf et al.
# Submitted via: dBpowerAMP V12.0
#
DISCID=870b670a
DTITLE=Alabama - Greatest Hits, Vol. 1 [CDA]
DYEAR=1986
DGENRE=Country*
TTITLE0=She And I {#}
TTITLE1=Mountain Music
TTITLE2=Feels So Right
TTITLE3=Old Flame
TTITLE4=Tennessee River {#} (Live Version)
TTITLE5=Love In The First Degree
TTITLE6=40 Hour Week {For A Livin'}
TTITLE7=Why Lady Why
TTITLE8=The Fans {#}
TTITLE9=My Home's In Alabama {#} (Live Version)
EXTD=
EXTT0=
EXTT1=
EXTT2=
EXTT3=
EXTT4=
EXTT5=
EXTT6=
EXTT7=
EXTT8=
EXTT9=
PLAYORDER=
